P2
# chat.pgm nbre de ligne = 240 nbre de colonne = 320
320 7
255
1 1 1 1 1 2 2 3 3 2 2 2 2 1 1 1 1 2 3 3 6 10 16 21 40 80 115 121 118 120 121 123 124 123 123 129 130 128 130 138 142 136 123 125 135 139 137 142 139 136 145 142 138 140 143 141 137 140 139 127 113 99 100 117 125 123 121 133 139 134 120 110 114 111 111 101 89 111 126 128 138 135 131 128 145 170 185 175 157 134 112 95 89 112 96 45 33 26 22 24 17 9 13 29 25 15 11 6 6 6 5 6 10 9 6 12 12 6 8 8 7 9 9 12 12 5 2 3 2 1 3 6 7 11 4 3 8 7 5 5 5 4 4 4 4 4 4 3 3 3 4 4 4 4 4 4 4 3 3 4 3 3 2 1 2 2 1 1 1 1 1 2 1 0 1 2 2 1 1 1 1 1 1 1 2 2 1 1 1 1 1 2 8 5 2 3 2 1 1 3 3 2 2 2 3 3 1 1 1 2 2 2 1 2 2 1 2 1 2 4 4 2 4 4 4 4 4 4 4 4 5 4 15 24 18 11 10 12 28 42 57 71 82 119 161 183 187 183 164 145 142 150 165 182 178 175 170 161 155 153 151 146 142 136 140 147 154 156 156 161 161 160 156 153 156 161 161 164 168 168 174 178 178 182 189 195 197 193 187 181 174 164 156 153 149 148 160 140 53 10 8 8 7 6 4 4 4 3 3 4 5 5 3 2 3 2 2 2 4 3
1 1 1 1 1 2 2 3 3 2 2 2 2 1 0 0 1 2 2 2 3 4 10 24 35 58 101 126 120 110 117 125 129 126 121 119 125 134 142 145 146 142 133 134 137 141 143 156 163 151 153 161 161 162 166 171 167 165 161 147 131 118 118 132 138 147 154 152 152 150 141 130 124 126 123 111 106 105 112 127 146 138 112 101 116 131 151 167 172 166 150 136 104 112 125 84 48 38 36 38 27 17 15 32 41 42 32 9 5 7 5 6 10 13 8 10 12 9 9 7 8 10 11 13 12 6 4 4 2 2 3 6 9 16 7 4 12 9 4 5 5 5 5 5 5 4 5 6 3 3 3 5 5 4 2 2 3 2 3 4 3 3 3 1 2 2 1 1 1 1 3 3 3 2 3 2 3 3 2 1 1 2 1 1 2 4 2 1 1 1 1 1 7 8 4 3 3 2 2 4 3 2 3 3 4 3 2 2 2 3 2 3 2 1 2 2 2 2 2 5 3 2 5 6 4 3 4 5 6 6 7 8 24 26 20 16 17 31 53 58 82 103 127 161 176 181 185 171 153 149 165 174 182 184 180 174 157 143 149 154 155 149 136 130 138 146 150 147 144 143 144 148 151 159 168 172 173 176 177 173 173 174 175 175 180 187 194 192 188 182 173 163 156 150 149 156 166 105 26 16 11 7 5 5 5 4 4 3 2 3 3 3 2 1 1 1 1 1 1 1
1 1 1 1 1 1 1 3 3 3 3 3 3 2 0 0 0 0 0 1 1 4 12 20 27 50 89 113 109 110 117 125 133 133 131 130 132 139 149 159 165 167 161 156 156 155 157 163 170 166 162 160 159 152 141 145 152 155 155 151 149 138 132 142 145 148 157 159 159 156 143 131 129 127 127 122 117 118 115 119 144 137 104 84 105 127 118 141 164 172 171 169 142 115 119 113 75 54 49 53 45 43 32 37 55 66 72 26 10 16 11 7 9 14 12 9 13 12 10 9 12 14 13 16 13 7 6 4 2 4 4 9 16 24 13 9 13 9 4 5 9 10 7 5 5 4 12 34 17 4 3 3 3 2 3 3 4 3 4 5 4 3 4 3 3 3 2 2 2 2 3 3 4 4 4 4 4 7 7 5 4 4 4 3 3 5 6 4 3 3 3 3 6 11 9 7 6 5 4 6 7 6 5 8 9 6 7 5 5 6 6 5 4 3 4 3 2 3 4 5 3 2 5 6 4 4 4 5 7 10 8 18 34 34 35 31 42 52 63 89 133 154 173 181 169 173 175 165 159 167 186 189 181 163 150 143 142 151 165 164 158 148 139 130 126 135 144 149 155 160 164 173 177 181 181 179 180 191 191 188 187 183 180 179 180 182 187 185 183 182 178 173 161 145 146 172 155 71 28 18 11 6 5 5 5 3 3 3 3 2 2 3 2 1 1 1 1 1 1 1
1 1 1 1 1 1 1 2 2 2 2 2 2 2 0 0 0 0 0 0 2 5 10 19 29 45 77 108 103 107 121 123 129 135 140 143 137 132 136 154 165 165 162 160 155 147 146 148 147 149 146 147 153 158 146 127 126 132 133 132 144 150 147 145 143 143 146 147 153 152 147 136 118 100 104 122 120 109 108 104 123 136 101 74 100 139 133 124 146 166 172 180 173 137 112 129 111 67 57 66 63 56 46 42 61 70 74 47 46 50 24 11 13 15 18 10 15 17 12 13 17 23 22 20 16 10 9 4 5 8 10 20 36 40 31 33 21 12 8 19 46 53 19 5 5 9 23 48 35 11 7 3 1 2 7 4 4 3 3 3 4 3 2 3 4 4 2 2 3 3 2 3 3 4 3 4 4 6 6 6 6 5 6 5 5 4 8 7 6 8 7 5 6 13 14 11 8 6 6 9 12 11 11 13 13 10 10 7 7 9 13 9 6 6 7 5 3 5 4 5 3 2 6 6 5 5 4 7 10 11 12 29 41 47 61 56 60 66 97 146 178 188 187 186 168 150 158 165 169 175 181 172 160 157 153 155 161 163 162 163 153 145 146 139 131 130 133 141 155 168 172 179 183 186 184 181 183 185 185 188 192 194 195 193 191 187 183 178 174 174 175 169 161 152 158 165 112 43 29 16 9 10 12 12 6 3 3 3 3 3 2 3 2 1 1 1 1 1 1 1
0 0 0 0 0 0 0 0 0 0 0 0 0 0 0 0 0 0 0 0 2 3 6 15 25 35 62 109 123 115 116 122 129 134 137 142 143 141 142 148 154 157 162 163 160 153 150 145 145 152 153 149 149 158 168 158 141 135 134 127 134 145 153 157 158 153 151 145 146 144 143 145 138 111 88 92 104 92 86 92 101 135 114 85 110 127 130 116 133 156 158 175 171 155 131 135 135 90 57 61 65 51 55 51 62 61 55 62 64 57 35 19 18 17 23 14 19 22 16 23 22 39 34 20 17 13 9 5 7 11 25 50 64 61 73 76 46 36 41 76 114 114 45 21 16 15 34 37 29 11 10 18 9 3 6 5 4 3 5 3 2 3 2 2 5 3 1 5 13 6 4 3 2 3 4 4 3 5 6 9 8 5 5 4 6 7 7 7 7 11 9 7 6 10 14 13 9 9 7 11 15 15 16 16 16 12 10 7 7 10 19 10 6 6 6 7 8 7 6 6 3 4 7 7 7 5 5 10 15 12 23 45 53 65 79 67 66 116 162 181 187 185 180 179 158 136 149 158 168 178 176 167 167 172 163 165 163 151 146 148 142 136 133 132 131 132 132 141 152 159 162 165 173 176 174 174 170 167 172 180 184 190 195 197 196 192 186 179 173 169 170 172 163 154 161 144 83 41 28 24 22 18 13 7 5 4 4 4 4 4 4 3 2 2 1 1 1 2 2 2
0 0 0 0 0 0 0 0 0 0 0 0 0 0 0 0 0 0 0 0 1 2 6 17 22 27 49 97 123 126 120 120 129 139 142 144 148 153 155 154 155 161 169 175 181 184 179 174 169 173 181 178 164 152 153 158 165 157 145 136 135 137 144 155 157 155 149 141 128 123 130 136 135 126 114 95 88 78 62 65 84 116 119 97 121 117 99 109 133 150 131 151 157 160 156 143 150 123 71 58 63 49 56 52 56 57 51 64 57 56 50 28 27 24 24 20 28 38 25 43 31 57 49 31 21 15 10 5 7 21 48 82 81 81 109 121 92 81 99 123 150 136 70 36 19 14 30 21 11 5 8 28 18 3 3 8 5 7 13 7 4 4 4 4 5 4 9 13 15 9 5 3 3 3 4 5 6 4 8 26 22 5 8 13 12 34 17 5 8 11 10 7 7 9 17 15 11 12 9 11 17 20 19 21 20 16 10 8 6 11 19 9 6 7 7 7 10 8 10 10 6 8 5 6 7 10 10 17 18 22 48 68 71 92 97 83 123 178 197 189 180 176 164 155 142 141 155 171 182 180 166 159 152 144 139 144 142 139 152 158 151 148 146 146 149 151 157 156 157 158 153 154 158 161 164 165 167 169 170 175 185 190 192 195 196 193 190 186 179 171 169 173 165 159 160 115 74 60 38 26 18 8 5 4 4 5 5 5 5 4 5 4 2 2 2 2 2 2 2 2
0 0 0 0 0 0 0 0 0 0 0 0 0 0 0 0 0 0 0 1 1 1 3 12 16 21 39 91 130 131 137 143 144 145 148 153 159 160 155 152 155 158 164 171 174 172 173 175 170 170 172 172 155 142 143 146 158 164 160 163 160 155 144 145 149 156 157 149 131 110 105 115 120 118 118 116 105 100 87 69 68 102 107 82 101 107 84 101 133 144 122 138 150 162 160 152 158 149 114 68 56 46 47 48 50 60 51 44 61 70 61 37 41 41 31 21 32 56 42 63 38 63 74 66 37 21 26 11 9 31 71 75 83 107 122 123 110 98 117 114 132 117 69 35 16 9 18 11 10 13 11 25 28 7 10 13 7 21 21 9 9 5 9 27 23 24 39 22 6 6 5 3 4 3 4 7 7 4 17 50 56 33 25 56 48 78 33 17 20 12 9 7 8 8 18 16 11 13 11 11 21 26 28 27 20 17 11 10 7 12 19 8 6 8 8 8 12 9 12 13 9 13 6 6 10 19 20 23 28 48 76 85 85 113 127 134 177 196 197 185 177 161 137 129 139 163 175 174 175 166 155 147 135 130 127 127 129 135 148 155 152 154 155 153 158 162 166 163 163 159 151 153 158 163 162 156 158 166 169 172 181 187 192 192 188 187 187 181 175 170 168 163 158 162 159 116 69 32 20 14 9 6 6 5 5 5 5 5 5 5 4 4 3 3 3 4 3 3 2 3
